<svg width="512" height="512" viewBox="0 0 512 512" fill="none" xmlns="http://www.w3.org/2000/svg">
<rect width="512" height="512" fill="url(#paint0_linear_15358_15892)"/>
<path d="M224 400.953L308 296.905H280L298 228.873H223L206 320.916H234L224 400.953Z" fill="#08EA47"/>
<path fill-rule="evenodd" clip-rule="evenodd" d="M219.12 99.5744C242.08 86.8085 270 86.8085 292.92 99.5744L372.92 144.035C397.04 157.441 412 182.893 412 210.506V336.925C412 378.904 377.96 412.96 336 412.96H260L280 388.949H336C364.72 388.949 388 365.658 388 336.925V210.506C388 191.617 377.76 174.209 361.24 165.045L281.24 120.584C265.52 111.86 246.44 111.86 230.72 120.584L150.72 165.045C134.2 174.209 123.96 191.617 123.96 210.506V336.925C123.96 365.658 147.24 388.949 175.96 388.949H213.36L220.36 332.923H205.96C202.4 332.923 199 331.322 196.72 328.601C194.44 325.84 193.48 322.238 194.16 318.756L211.16 226.713C212.2 221.031 217.16 216.909 222.96 216.909H297.96C301.68 216.909 305.2 218.63 307.48 221.591C309.76 224.552 310.52 228.394 309.56 231.996L295.56 284.941H307.96C312.6 284.941 316.8 287.582 318.8 291.784C320.8 295.946 320.2 300.908 317.32 304.51L233.32 408.558C231.04 411.359 227.6 413 224 413H176C134.04 413 100 378.944 100 336.965V210.546C100 182.933 114.96 157.481 139.08 144.075L219.08 99.6145L219.12 99.5744ZM282.92 308.912H280.04C276.32 308.912 272.8 307.191 270.52 304.229C268.24 301.268 267.48 297.426 268.44 293.825L282.44 240.88H233.04L220.48 308.912H234.04C237.48 308.912 240.76 310.392 243.04 312.954C245.32 315.555 246.36 318.956 245.96 322.398L241.2 360.616L282.96 308.912H282.92Z" fill="white"/>
<defs>
<linearGradient id="paint0_linear_15358_15892" x1="257" y1="7.92" x2="255" y2="503.92" gradientUnits="userSpaceOnUse">
<stop stop-color="#0CE9DE"/>
<stop offset="1" stop-color="#03BEDD"/>
</linearGradient>
</defs>
</svg>
